<?xml version="1.0" encoding="UTF-8" standalone="no"?>
<svg width="337px" height="60px" viewBox="0 0 337 60" version="1.1" xmlns="http://www.w3.org/2000/svg" xmlns:xlink="http://www.w3.org/1999/xlink" xmlns:sketch="http://www.bohemiancoding.com/sketch/ns">
    <!-- Generator: Sketch 3.0.1 (7597) - http://www.bohemiancoding.com/sketch -->
    <title>Full Logo</title>
    <description>Created with Sketch.</description>
    <defs>
        <linearGradient x1="50%" y1="0%" x2="50%" y2="100%" id="linearGradient-1">
            <stop stop-color="#00EBFF" offset="0%"></stop>
            <stop stop-color="#FFD565" offset="49.6352838%"></stop>
            <stop stop-color="#FF5E3A" offset="100%"></stop>
        </linearGradient>
    </defs>
    <g id="Page-2" stroke="none" stroke-width="1" fill="none" fill-rule="evenodd" sketch:type="MSPage">
        <g id="960" sketch:type="MSArtboardGroup" transform="translate(-10.000000, -59.000000)">
            <g id="Full-Logo" sketch:type="MSLayerGroup" transform="translate(10.000000, 51.000000)">
                <g id="Logo" transform="translate(0.000000, 8.000000)" fill="url(#linearGradient-1)" sketch:type="MSShapeGroup">
                    <path d="M0,0 L0,11 L44,11 L44,0 L0,0 Z M0,44 L0,55 L44,55 L44,44 L0,44 Z M11,22 L11,33 L33,33 L33,22 L11,22 Z M66.1254987,55 L81.9270398,55 L53.9857242,27.5358571 L82,0 L66.2743418,1.29613449e-15 L44,21.8939478 L44,33.104915 L66.1254987,55 Z" id="logo.png"></path>
                </g>
                <text id="Eric-S-Kuhn" sketch:type="MSTextLayer" font-family="Quicksand" font-size="36" font-weight="260" letter-spacing="3.99999809" fill="#9B9B9B">
                    <tspan x="97" y="34">Eric S Kuhn</tspan>
                </text>
                <text id="software-strategy-&amp;-" sketch:type="MSTextLayer" font-family="Open Sans" font-size="18" font-weight="260" letter-spacing="1" fill="#D8D8D8">
                    <tspan x="100" y="63">software strategy &amp; design</tspan>
                </text>
            </g>
        </g>
    </g>
</svg>