<?xml version="1.0" encoding="UTF-8" standalone="no"?>
<svg width="222px" height="222px" viewBox="0 0 222 222" version="1.1" xmlns="http://www.w3.org/2000/svg" xmlns:xlink="http://www.w3.org/1999/xlink" xmlns:sketch="http://www.bohemiancoding.com/sketch/ns">
    <!-- Generator: Sketch 3.0.1 (7597) - http://www.bohemiancoding.com/sketch -->
    <title>Viking 2</title>
    <description>Created with Sketch.</description>
    <defs>
        <path id="path-1" d="M109,218 C169.199038,218 218,169.199038 218,109 C218,48.8009623 169.199038,0 109,0 C48.8009623,0 0,48.8009623 0,109 C0,169.199038 48.8009623,218 109,218 Z"></path>
    </defs>
    <g id="Page-2" stroke="none" stroke-width="1" fill="none" fill-rule="evenodd" sketch:type="MSPage">
        <g id="960" sketch:type="MSArtboardGroup" transform="translate(-391.000000, -556.000000)">
            <g id="Viking-2" sketch:type="MSLayerGroup" transform="translate(393.000000, 558.000000)">
                <g id="Oval-2-+-Rectangle-36-+-Path-39">
                    <mask id="mask-2" sketch:name="Oval 2" fill="white">
                        <use xlink:href="#path-1"></use>
                    </mask>
                    <use id="Oval-2" stroke="#979797" stroke-width="2" fill="#FFFFFF" sketch:type="MSShapeGroup" xlink:href="#path-1"></use>
                    <path d="M78.4774009,150.788916 C58.5612521,150.757688 42,145.435468 42,145.435468 C42,145.435468 54.1456946,174.437139 91.1986842,172.944283 C109.962474,172.188294 134.310547,170.679688 148.460938,154.80957 C156.550043,145.737379 161.909386,108.41047 165.00293,100.837891 C168.096473,93.2653114 174.158203,86.3134766 174.158203,86.3134766 C174.158203,86.3134766 151.326172,88.7705076 151.326172,88.7705079 C151.326172,88.7705081 163.588867,108.748047 145.995117,131.402344 C145.995117,131.402344 126.625,150.86441 78.4774009,150.788916 Z" id="Rectangle-36" stroke="#4A4A4A" stroke-width="2" sketch:type="MSShapeGroup" mask="url(#mask-2)"></path>
                    <path d="M23.0598501,176.232036 C39.7983037,176.35785 58.7932972,158.555229 58.7932964,158.555229 C58.7932964,158.555229 65.3317752,167.187464 83.8769482,167.187464 C102.422121,167.187464 110.877723,160.31498 110.877723,160.31498 C110.877723,160.31498 121.471252,167.187464 141.054217,167.187464 C160.637182,167.187464 168.711889,154.582743 168.711889,154.582743 C168.711889,154.582743 185.741064,161.823885 193.434881,160.314982 C222.663259,154.582743 228.24133,129.051575 231.657018,129.051575 C235.753927,129.051575 212.755348,193.500606 241.854436,198.33252" id="Path-39" stroke="#00EBFF" stroke-width="10" fill="#FFFFFF" sketch:type="MSShapeGroup" mask="url(#mask-2)">
                        <g transform="translate(132.559850, 163.555229) rotate(-8.000000) translate(-132.559850, -163.555229) "></g>
                    </path>
                </g>
                <g id="Group" transform="translate(89.000000, 1.000000)" sketch:type="MSShapeGroup">
                    <path d="M45.1554497,77.0413355 L59.0000004,67" id="Line-9" stroke="#4A4A4A" stroke-width="2" stroke-linecap="square"></path>
                    <path d="M73.0643917,60.1580046 L78.1968134,60.1580046 C78.1968134,60.1580046 80.475196,58.496889 80.475196,61.0323795 C80.475196,63.5678699 78.1968134,61.9067543 78.1968134,61.9067543 L71.3188229,61.9067543 L71.3188229,75.6500265 L68.5014316,75.6500265 L68.5014316,61.9067543 L61.5318441,61.9067543 C61.5318441,61.9067543 59.2987254,63.5254428 59.2987254,61.0323795 C59.2987254,58.5393162 61.5318441,60.1580046 61.5318441,60.1580046 L66.6312687,60.1580046 L66.6312687,10.1404674 C66.6312687,10.1404674 68.6862374,1.12061476 69.8478302,1.12061476 C70.8306117,1.12061476 73.0643917,10.1404674 73.0643917,10.1404674 L73.0643917,60.1580046 Z" id="Rectangle-33" stroke="#4A4A4A" stroke-width="2" fill="#FFFFFF" transform="translate(70.184040, 38.620615) rotate(20.000000) translate(-70.184040, -38.620615) "></path>
                    <path d="M59.7202117,69.6875703 C61.4818769,69.6875703 62.9099887,68.2563472 62.9099887,66.490844 C62.9099887,64.7253408 61.4818769,63.2941176 59.7202117,63.2941176 C57.9585466,63.2941176 56.5304348,64.7253408 56.5304348,66.490844 C56.5304348,68.2563472 57.9585466,69.6875703 59.7202117,69.6875703 Z" id="Oval-5" fill="#4A4A4A"></path>
                    <path d="M3.72148338,114 C5.71945468,114 7.33913043,112.380324 7.33913043,110.382353 C7.33913043,108.384382 5.71945468,106.764706 3.72148338,106.764706 C1.72351208,106.764706 0.103836317,108.384382 0.103836317,110.382353 C0.103836317,112.380324 1.72351208,114 3.72148338,114 Z" id="Oval-4" fill="#4A4A4A"></path>
                    <g transform="translate(0.000000, 54.000000)">
                        <ellipse id="Oval-3" stroke="#4A4A4A" stroke-width="2" cx="28.526087" cy="17.8235294" rx="16.5521739" ry="18"></ellipse>
                        <path d="M9.28376135,30.2335645 C8.5681119,31.2902427 4.77276367,35.8235294 4.93551687,35.8235294 C5.09966192,35.8235294 9.61359964,31.6264106 10.4747316,30.5602265 C11.9873661,28.6874047 13.256947,24.833678 13.256947,23.3033961 C13.256947,21.0767572 15.3121167,18.8862479 16.7458723,17.4367438 C17.378318,16.7973514 15.9269728,16.7647059 15.7272853,16.7647059 C15.0749055,16.7647059 11.8651146,20.094562 11.8651146,23.3033961 C11.8651146,24.8939588 10.6757442,28.1782594 9.28376135,30.2335645 Z" id="Path-6" fill="#FFD565"></path>
                        <path d="M12.1383471,27.7311917 C11.8272618,28.9689109 9.81127649,34.5268926 9.96421447,34.4712277 C10.1184604,34.4150868 12.9246751,28.9272276 13.3692181,27.6308178 C14.1500868,25.3535895 14.0250504,21.2980487 13.5016632,19.8600541 C12.7401078,17.767698 13.9221373,15.0063831 14.7736673,13.1539215 C15.1492867,12.33678 13.774303,12.8024925 13.586658,12.8707897 C12.9736216,13.0939167 11.0962827,17.320771 12.1937686,20.3360888 C12.737773,21.8307288 12.7434274,25.3237505 12.1383471,27.7311917 Z" id="Path-7" fill="#FFD565"></path>
                        <path d="M9.16098624,25.3474265 C8.41611292,26.424919 7.38973434,27.843516 5.43654451,30.4731367 C3.52447558,33.0473954 -0.163759094,36.5294118 0.00564020567,36.5294118 C0.176488189,36.5294118 5.10531713,32.4942881 7.21156806,30.0458723 C8.61283408,28.4169678 6.4047665,31.1980819 4.62974295,34.6805351 C7.77088581,31.3283321 9.41303142,29.8156515 11.0738964,29.3214526 C11.4124375,29.2207179 8.88973942,33.8985331 8.29715974,34.6805351 C7.70458006,35.4625371 12.1392726,29.6621528 15.8066891,29.3214526 C19.4741056,28.9807524 19.7350941,22.584878 19.7350941,21.0244528 C19.7350941,18.753954 22.084089,13.3015856 23.5763927,11.8235294 C24.2346645,11.1715423 17.5063219,9.54940253 17.29848,9.54940253 C17.0410379,9.54940253 15.4702198,9.90862985 14.5175442,10.6930148 C12.9574771,11.9774951 11.0738963,16.1980625 11.0738963,18.2295494 C11.0738963,19.8514428 10.6098113,23.2516363 9.16098624,25.3474265 Z" id="Path-5" fill="#FF663D"></path>
                        <path d="M17.3625166,15.2815371 C16.191391,18.8176229 16.2013445,19.5500983 14.9344286,22.2910945 C13.6941853,24.9743839 11.8702291,27.2577392 12.0174484,27.2317805 C12.1659266,27.2055998 14.3589876,25.1498782 15.7885916,22.5536818 C17.3311739,19.7523139 18.1329647,16.3570459 18.7339062,15.2102098 C19.789499,13.1957175 20.809356,13.3835264 20.5538748,11.9346201 C20.1821364,9.82638695 17.69291,9.30642587 18.2286263,12.3446242 C18.4941715,13.8506057 18.5336421,11.7454513 17.3625166,15.2815371 Z" id="Oval-9" fill="#FFD565"></path>
                        <path d="M22.380724,36.3587457 C21.6635925,37.5054009 17.4502158,42.6313498 17.6133061,42.6313498 C17.7777911,42.6313498 22.6929602,38.1106099 23.5558756,36.9536394 C25.0716428,34.9213452 25.9156194,31.0913465 25.9156194,29.4307598 C25.9156194,27.5532153 27.2971553,24.6863484 28.6970709,24.4281929 C30.0969866,24.1700374 31.4881617,25.8164493 33.1168546,26.2937909 C34.7455476,26.7711324 35.7958874,25.6581976 36.7163828,26.7785135 C36.9382343,27.0485243 36.6295494,29.0742928 35.4221329,31.2063711 C34.414084,32.9864025 33.045544,35.1156762 31.6467347,37.1976322 C28.586236,41.7528088 24.6204962,45.0507184 24.7288486,44.9994095 C25.3884802,44.6870501 31.2685517,40.0373589 34.803548,35.5167447 C36.6363036,33.1729851 37.6356844,30.5120764 37.9062039,29.9337997 C38.698498,28.2401499 39.1615605,26.0500889 38.1952351,24.7538831 C37.2289097,23.4576773 36.130534,24.7704621 33.5845333,24.1700375 C31.0385326,23.5696129 30.6836183,20.8479382 28.6970709,21.9773493 C25.9787169,23.5228142 24.5090976,26.6741965 24.5090976,29.0728144 C24.5090976,30.7988149 23.7755897,34.1284297 22.380724,36.3587457 Z" id="Path-9" fill="#FF663D"></path>
                        <path d="M30.9913043,30.8823529 C33.3253077,30.8823529 35.2173913,28.9866327 35.2173913,27.6075924 C35.2173913,26.228552 33.55427,28.0776627 31.5381744,26.7914193 C29.5220788,25.505176 26.7652174,25.6020847 26.7652174,27.6075924 C26.7652174,30.8823529 28.657301,30.8823529 30.9913043,30.8823529 Z" id="Oval-6" fill="#4A4A4A"></path>
                        <path d="M37.8623068,15.9218176 L37.4433695,22.2913028" id="Line" stroke="#4A4A4A" stroke-linecap="square"></path>
                        <path d="M33.1043478,18.8823529 C33.882349,18.8823529 34.5130435,18.2502844 34.5130435,17.4705882 C34.5130435,17.0989821 33.8788398,17.2189468 33.6446459,16.9668543 C33.3874591,16.6900117 33.5115507,16.0588235 33.1043478,16.0588235 C32.3263467,16.0588235 31.6956522,16.6908921 31.6956522,17.4705882 C31.6956522,18.2502844 32.3263467,18.8823529 33.1043478,18.8823529 Z" id="Oval-10" fill="#4A4A4A"></path>
                        <path d="M38.5755106,19.7535041 C39.1590114,19.7535041 39.7751889,19.1141839 39.7751889,18.5294118 C39.7751889,17.9446397 39.5329383,17.3857996 38.9494374,17.3857996 C38.7054024,17.3857996 38.6776271,17.9036548 38.5755106,18.0429113 C38.433461,18.2366246 37.7075429,18.1892064 37.7075429,18.5294118 C37.7075429,19.1141839 37.9920097,19.7535041 38.5755106,19.7535041 Z" id="Oval-11" fill="#4A4A4A"></path>
                    </g>
                    <path d="M29.1752356,89.8409352 L26.7280269,103.004143 L6.20044476,109.302418 L26.7280269,103.004143 L22.3901272,127.074606 L16.830749,146.668945 L22.3901272,127.074606 C22.3960305,127.072946 39.6704654,122.292394 39.6704654,122.292394 L45.5634781,138.604493" id="Path-53" stroke="#4A4A4A" stroke-width="2"></path>
                </g>
                <path d="M80.5,35.5 L98.5,148.5" id="Line" stroke="#4A4A4A" stroke-width="2" stroke-linecap="square" sketch:type="MSShapeGroup"></path>
                <circle id="Oval-27" fill="#4A4A4A" sketch:type="MSShapeGroup" cx="80" cy="32" r="4"></circle>
                <path d="M56.4895903,51.8190349 C53.7399491,56.6814435 47.262038,59.9135174 41.7250977,59.1347656 C37.9618142,58.6054726 31.7446289,57.9527969 31.7446289,57.9527969 C31.7446289,57.9527969 33.033356,64.9538198 34.9391699,73.9035683 C36.8449838,82.8533169 39.2226562,90.3359375 39.2226562,90.3359375 C39.2226562,90.3359375 58.2790637,96.9135292 63.0587863,86.2090977 C67.8385089,75.5046661 84,77.6215662 84,77.6215662 C84,77.6215662 78.6391602,66.4266757 78.6391602,59.7189636 L78.6391602,39.2714844 C78.6391602,39.2714844 61.1080759,43.6518008 56.4895903,51.8190349 Z" id="Rectangle-41" fill="#4A4A4A" sketch:type="MSShapeGroup"></path>
                <g id="hat" transform="translate(100.000000, 35.000000)" stroke="#4A4A4A" stroke-width="2" fill="#FFFFFF" sketch:type="MSShapeGroup">
                    <path d="M27.3442344,25.7649762 C31.111545,21.8512663 37.8390048,13.8515543 42,3 C42,9.52649902 38.9966932,16.8669478 35.9683004,22.609714 C34.5316527,25.3340409 33.0893594,27.6988116 31.9593795,29.4465571 C30.6672824,31.4450501 25.654469,27.5204067 27.3442344,25.7649762 Z" id="Path-8"></path>
                    <path d="M17.6411531,33.5757131 C22.4717075,33.5757131 27.1350863,34.8631531 30.40599,36.049044 C33.1986211,37.0615335 34.9762217,37.9999998 34.9762217,38 C35.6951848,22.4564356 19.8714309,15 19.8714309,15 C19.8714309,15 0.000219173542,20.3830821 4.66173048e-06,36.4964177 C4.66172602e-06,36.496418 8.68636974,33.5757131 17.6411531,33.5757131 Z" id="Oval-13"></path>
                    <path d="M14.9730974,26.5261217 C16.5853988,26.8882859 18.3019693,26.1131778 18.3019693,26.1131778 C18.3019693,26.1131778 21.5098598,12.3353587 32.3004653,-0.193044393 C20.9805764,6.34249649 12.3412079,24.0963783 12.3412079,24.0963783 C12.3412079,24.0963783 13.360796,26.1639576 14.9730974,26.5261217 Z" id="Path-37"></path>
                </g>
                <path d="M60,58 C53.9247917,58 49,62.9243333 49,69 C49,75.0756667 53.9247917,80 60,80 C66.0756667,80 71,75.0756667 71,69 C71,62.9243333 66.0756667,58 60,58 L60,58 Z M67.6886889,74.9455933 C66.6914388,74.540418 64.3374014,73.745549 62.8810709,73.3266615 C62.7565283,73.2890634 62.7374378,73.2828707 62.7374378,72.779498 C62.7374378,72.3641491 62.9124338,71.9457039 63.0837936,71.5913967 C63.270153,71.2065686 63.490148,70.5594382 63.5687825,69.9786575 C63.7901411,69.7291828 64.0910434,69.2368683 64.2842208,68.2977994 C64.4542169,67.4706403 64.3751278,67.1694128 64.2624031,66.8872056 C64.2505852,66.8575694 64.2383128,66.8279332 64.2296766,66.7987394 C64.1869503,66.6049983 64.2451308,65.5969258 64.3910366,64.8148844 C64.4914888,64.2783368 64.3655826,63.137565 63.6065089,62.1936304 C63.1269744,61.5973681 62.2097225,60.8653102 60.534306,60.7631317 L59.6156906,60.7640164 C57.9689098,60.8653102 57.0512034,61.5973681 56.5716688,62.1936304 C55.8125952,63.137565 55.6866889,64.2783368 55.7871412,64.8144421 C55.933047,65.5969258 55.9912275,66.6049983 55.9494102,66.7947584 C55.9403195,66.8279332 55.9275926,66.8575694 55.9157746,66.8872056 C55.8035045,67.1694128 55.7239608,67.4706403 55.893957,68.2977994 C56.0871344,69.2368683 56.3880366,69.7291828 56.6093952,69.9786575 C56.6880298,70.5594382 56.9084794,71.2065686 57.0943842,71.5913967 C57.2302902,71.8731616 57.2939251,72.2562203 57.2939251,72.7976335 C57.2939251,73.3010063 57.2748347,73.3067566 57.1580191,73.3430278 C55.6516897,73.7760699 53.254017,74.6191529 52.3599464,75 C50.8890707,73.3054296 50,71.1176601 50,68.7312839 C50,63.3653655 54.4858071,59 59.9997727,59 C65.5137383,59 70,63.3653655 70,68.7312839 C70,71.0920049 69.1304743,73.2589849 67.6886889,74.9455933 L67.6886889,74.9455933 Z" id="Imported-Layers" fill="#FFFFFF" sketch:type="MSShapeGroup" transform="translate(60.000000, 69.000000) rotate(-13.000000) translate(-60.000000, -69.000000) "></path>
            </g>
        </g>
    </g>
</svg>